<svg xmlns="http://www.w3.org/2000/svg" viewBox="0 0 476.737 476.737" width="512" height="512"><path d="M238.369 0C106.726 0 0 106.726 0 238.369c0 131.675 106.726 238.369 238.369 238.369 131.675 0 238.369-106.694 238.369-238.369C476.737 106.726 370.043 0 238.369 0zm127.13 349.607h-254.26c-8.772 0-15.891-7.151-15.891-15.891s7.119-15.891 15.891-15.891h254.26c8.74 0 15.891 7.151 15.891 15.891s-7.151 15.891-15.891 15.891zm0-95.347h-254.26c-8.772 0-15.891-7.151-15.891-15.891 0-8.772 7.119-15.891 15.891-15.891h254.26c8.74 0 15.891 7.119 15.891 15.891 0 8.74-7.151 15.891-15.891 15.891zm0-95.348h-254.26c-8.772 0-15.891-7.119-15.891-15.891s7.119-15.891 15.891-15.891h254.26c8.74 0 15.891 7.119 15.891 15.891s-7.151 15.891-15.891 15.891z" fill="#FFF"/></svg>